<svg width="120" height="25" viewBox="0 0 120 25" fill="none" xmlns="http://www.w3.org/2000/svg">
<g id="coffeener">
<path d="M8.20553 8.128C6.69086 8.128 5.42153 8.85333 4.39753 10.304C3.39486 11.7547 2.89353 13.76 2.89353 16.32C2.89353 18.88 3.3522 20.7787 4.26953 22.016C5.2082 23.2533 6.43486 23.872 7.94953 23.872C9.8482 23.872 11.5335 23.552 13.0055 22.912L13.1015 23.136C11.5869 23.7973 9.8162 24.128 7.78953 24.128C5.76286 24.128 4.07753 23.488 2.73353 22.208C1.38953 20.928 0.717529 18.9547 0.717529 16.288C0.717529 13.6213 1.42153 11.552 2.82953 10.08C4.23753 8.608 6.02953 7.872 8.20553 7.872C9.42153 7.872 10.5415 8.14933 11.5655 8.704C12.6109 9.25867 13.3789 10.1013 13.8695 11.232H11.8215C11.5015 10.1867 11.0109 9.408 10.3495 8.896C9.70953 8.384 8.99486 8.128 8.20553 8.128Z" fill="#FAC660"/>
<path d="M23.0828 24.128C20.8428 24.128 19.0188 23.488 17.6108 22.208C16.2028 20.928 15.4988 18.9547 15.4988 16.288C15.4988 13.6213 16.2241 11.552 17.6748 10.08C19.1468 8.608 21.0028 7.872 23.2428 7.872C25.5041 7.872 27.3388 8.512 28.7468 9.792C30.1548 11.072 30.8588 13.0453 30.8588 15.712C30.8588 18.3787 30.1228 20.448 28.6508 21.92C27.2001 23.392 25.3441 24.128 23.0828 24.128ZM23.3068 8.128C21.6854 8.128 20.3414 8.85333 19.2748 10.304C18.2081 11.7333 17.6748 13.7387 17.6748 16.32C17.6748 18.88 18.1654 20.7787 19.1468 22.016C20.1281 23.2533 21.4294 23.872 23.0508 23.872C24.6721 23.872 26.0161 23.1573 27.0828 21.728C28.1494 20.2773 28.6828 18.272 28.6828 15.712C28.6828 13.1307 28.1921 11.2213 27.2108 9.984C26.2294 8.74667 24.9281 8.128 23.3068 8.128Z" fill="#FAC660"/>
<path d="M35.532 6.496V8H38.06V8.256H35.532V24H33.292V8.256H32.62V8H33.292V6.496C33.292 4.17067 33.7934 2.51733 34.796 1.536C35.7987 0.533335 37.42 0.0213343 39.66 0V0.256001C38.188 0.277334 37.132 0.778667 36.492 1.76C35.852 2.72 35.532 4.29867 35.532 6.496Z" fill="#FAC660"/>
<path d="M43.0633 6.496V8H45.5913V8.256H43.0633V24H40.8233V8.256H40.1513V8H40.8233V6.496C40.8233 4.17067 41.3246 2.51733 42.3273 1.536C43.3299 0.533335 44.9513 0.0213343 47.1913 0V0.256001C45.7193 0.277334 44.6633 0.778667 44.0233 1.76C43.3833 2.72 43.0633 4.29867 43.0633 6.496Z" fill="#FAC660"/>
<path d="M50.0185 16.192C50.0185 18.8373 50.4772 20.7787 51.3945 22.016C52.3332 23.2533 53.5599 23.872 55.0745 23.872C57.2079 23.872 59.1065 23.552 60.7705 22.912L60.8665 23.136C59.1599 23.7973 57.2292 24.128 55.0745 24.128C52.9412 24.128 51.2025 23.488 49.8585 22.208C48.5145 20.928 47.8425 18.9547 47.8425 16.288C47.8425 13.6213 48.5465 11.552 49.9545 10.08C51.3625 8.608 53.1545 7.872 55.3305 7.872C57.0799 7.872 58.5519 8.39467 59.7465 9.44C60.9412 10.4853 61.5385 12.032 61.5385 14.08C61.5385 14.1867 61.5385 14.2933 61.5385 14.4H50.1145C50.0505 14.976 50.0185 15.5733 50.0185 16.192ZM59.3625 14.144C59.3412 12.096 58.9465 10.5813 58.1785 9.6C57.4105 8.61867 56.4185 8.128 55.2025 8.128C53.9865 8.128 52.8985 8.66133 51.9385 9.728C50.9999 10.7947 50.4025 12.2667 50.1465 14.144H59.3625Z" fill="#FAC660"/>
<path d="M65.9873 16.192C65.9873 18.8373 66.4459 20.7787 67.3633 22.016C68.3019 23.2533 69.5286 23.872 71.0433 23.872C73.1766 23.872 75.0753 23.552 76.7393 22.912L76.8353 23.136C75.1286 23.7973 73.198 24.128 71.0433 24.128C68.91 24.128 67.1713 23.488 65.8273 22.208C64.4833 20.928 63.8113 18.9547 63.8113 16.288C63.8113 13.6213 64.5153 11.552 65.9233 10.08C67.3313 8.608 69.1233 7.872 71.2993 7.872C73.0486 7.872 74.5206 8.39467 75.7153 9.44C76.9099 10.4853 77.5073 12.032 77.5073 14.08C77.5073 14.1867 77.5073 14.2933 77.5073 14.4H66.0833C66.0193 14.976 65.9873 15.5733 65.9873 16.192ZM75.3313 14.144C75.3099 12.096 74.9153 10.5813 74.1473 9.6C73.3793 8.61867 72.3873 8.128 71.1713 8.128C69.9553 8.128 68.8673 8.66133 67.9073 9.728C66.9686 10.7947 66.3713 12.2667 66.1153 14.144H75.3313Z" fill="#FAC660"/>
<path d="M92.0913 24C91.2166 24 90.5446 23.808 90.0753 23.424C89.6273 23.04 89.3926 22.656 89.3713 22.272L89.3393 21.728V11.68C89.3393 9.99467 88.9019 8.91733 88.0273 8.448C87.5793 8.23467 87.0246 8.128 86.3633 8.128C84.9979 8.128 83.7713 8.672 82.6833 9.76C81.5953 10.8267 81.0513 11.7867 81.0513 12.64V24H78.8113V8H81.0513V11.648C81.4139 10.7307 82.0859 9.87733 83.0673 9.088C84.0486 8.27734 85.1259 7.872 86.2993 7.872C87.4726 7.872 88.4219 7.98933 89.1473 8.224C89.8939 8.43734 90.438 8.74667 90.7793 9.152C91.3126 9.81333 91.5793 10.6667 91.5793 11.712V21.728C91.5793 22.3467 91.6966 22.8267 91.9313 23.168C92.1873 23.488 92.4433 23.6587 92.6993 23.68L93.0513 23.744H94.0433V24H92.0913Z" fill="#FAC660"/>
<path d="M97.5185 16.192C97.5185 18.8373 97.9772 20.7787 98.8945 22.016C99.8332 23.2533 101.06 23.872 102.575 23.872C104.708 23.872 106.607 23.552 108.271 22.912L108.367 23.136C106.66 23.7973 104.729 24.128 102.575 24.128C100.441 24.128 98.7025 23.488 97.3585 22.208C96.0145 20.928 95.3425 18.9547 95.3425 16.288C95.3425 13.6213 96.0465 11.552 97.4545 10.08C98.8625 8.608 100.655 7.872 102.831 7.872C104.58 7.872 106.052 8.39467 107.247 9.44C108.441 10.4853 109.039 12.032 109.039 14.08C109.039 14.1867 109.039 14.2933 109.039 14.4H97.6145C97.5505 14.976 97.5185 15.5733 97.5185 16.192ZM106.863 14.144C106.841 12.096 106.447 10.5813 105.679 9.6C104.911 8.61867 103.919 8.128 102.703 8.128C101.487 8.128 100.399 8.66133 99.4385 9.728C98.4999 10.7947 97.9025 12.2667 97.6465 14.144H106.863Z" fill="#FAC660"/>
<path d="M116.455 9.376V8.704C115.495 9.088 114.62 9.86667 113.831 11.04C113.041 12.192 112.625 13.28 112.583 14.304V24H110.343V8H112.583V13.088C112.924 11.8507 113.575 10.688 114.535 9.6C115.495 8.49067 116.583 7.91467 117.799 7.872H117.927C118.353 7.872 118.705 8.02133 118.983 8.32C119.281 8.59733 119.431 8.94933 119.431 9.376C119.431 9.80267 119.281 10.1547 118.983 10.432C118.705 10.7093 118.353 10.848 117.927 10.848C117.5 10.848 117.148 10.7093 116.871 10.432C116.593 10.1547 116.455 9.80267 116.455 9.376Z" fill="#FAC660"/>
</g>
</svg>
