<svg width="20" height="8" viewBox="0 0 20 8" fill="none" xmlns="http://www.w3.org/2000/svg">
<g id="Group">
<g id="Group_2">
<g id="Group_3">
<g id="Group_4">
<path id="Vector" d="M19.5384 4.40769H0.461526C0.234603 4.40769 0.0512695 4.22435 0.0512695 3.99743C0.0512695 3.77051 0.234603 3.58717 0.461526 3.58717H18.5474L16.0577 1.09743C15.8974 0.937174 15.8974 0.676918 16.0577 0.516661C16.2179 0.356405 16.4782 0.356405 16.6385 0.516661L19.8295 3.70769C19.9474 3.82564 19.982 4.00128 19.9179 4.15512C19.8538 4.30769 19.7038 4.40769 19.5384 4.40769Z" fill="#FAC660"/>
</g>
<g id="Group_5">
<path id="Vector_2" d="M16.3435 7.60256C16.2384 7.60256 16.1333 7.56281 16.0538 7.48205C15.8935 7.32179 15.8935 7.06153 16.0538 6.90128L19.2487 3.7064C19.4089 3.54615 19.6692 3.54615 19.8294 3.7064C19.9897 3.86666 19.9897 4.12692 19.8294 4.28717L16.6346 7.48205C16.5538 7.56281 16.4487 7.60256 16.3435 7.60256Z" fill="#FAC660"/>
</g>
</g>
</g>
</g>
</svg>
