<svg width="48" height="48" viewBox="0 0 48 48" fill="none" xmlns="http://www.w3.org/2000/svg">
<g id="logo-icon">
<path id="Rectangle 1" d="M13 24C13 11.6325 22.7614 1.5449 35 1.02135V36C35 42.0751 30.0751 47 24 47C17.9249 47 13 42.0751 13 36V24Z" stroke="#FAC660" stroke-width="2"/>
<path id="Rectangle 4" d="M13 28C13 21.9249 17.9249 17 24 17C30.0751 17 35 21.9249 35 28V36C35 42.0751 30.0751 47 24 47C17.9249 47 13 42.0751 13 36V28Z" stroke="#FAC660" stroke-width="2"/>
<path id="Rectangle 3" d="M21 32C21 30.3431 22.3431 29 24 29C25.6569 29 27 30.3431 27 32C27 33.6569 25.6569 35 24 35C22.3431 35 21 33.6569 21 32Z" stroke="#FAC660" stroke-width="2"/>
</g>
</svg>
